<svg width="612" height="130" viewBox="0 0 612 130" fill="none" xmlns="http://www.w3.org/2000/svg">
<g clip-path="url(#clip0_2_121)">
<path d="M43.2583 21.6551L6.65512 58.2583C2.9796 61.9338 2.9796 67.893 6.65512 71.5685L43.2583 108.172C46.9338 111.847 52.893 111.847 56.5685 108.172L93.1717 71.5685C96.8472 67.893 96.8472 61.9338 93.1717 58.2583L56.5685 21.6551C52.893 17.9796 46.9338 17.9796 43.2583 21.6551Z" fill="#406BD0"/>
<path d="M49.9359 88.4654C62.9308 88.4654 73.4653 77.9309 73.4653 64.936C73.4653 51.9411 62.9308 41.4066 49.9359 41.4066C36.941 41.4066 26.4065 51.9411 26.4065 64.936C26.4065 77.9309 36.941 88.4654 49.9359 88.4654Z" fill="white"/>
<path d="M37.7098 67.2889C34.0872 61.0146 38.6154 53.1713 45.8606 53.1713H54.0114C61.2566 53.1713 65.7849 61.0146 62.1623 67.2889L58.0867 74.3478C54.4641 80.6224 45.4077 80.6224 41.7851 74.3478L37.7098 67.2889Z" fill="#EDCD59"/>
</g>
<path d="M135.6 100.2C131.067 100.2 127.067 99.3333 123.6 97.6C120.2 95.8667 117.567 93.3333 115.7 90C113.833 86.6 112.9 82.5 112.9 77.7H126.4C126.4 79.8333 126.7 81.7 127.3 83.3C127.967 84.8333 128.933 86.0333 130.2 86.9C131.533 87.7 133.233 88.1 135.3 88.1C137.3 88.1 138.9 87.7333 140.1 87C141.367 86.2 142.267 85.1 142.8 83.7C143.4 82.2333 143.7 80.5 143.7 78.5V29H157.2V78.5C157.2 85.5 155.233 90.8667 151.3 94.6C147.433 98.3333 142.2 100.2 135.6 100.2ZM194.502 100.2C189.702 100.2 185.368 99.1 181.502 96.9C177.702 94.6333 174.668 91.5333 172.402 87.6C170.202 83.6 169.102 79.0333 169.102 73.9C169.102 68.6333 170.202 64.0333 172.402 60.1C174.668 56.1 177.735 53 181.602 50.8C185.468 48.5333 189.802 47.4 194.602 47.4C199.468 47.4 203.802 48.5333 207.602 50.8C211.468 53 214.502 56.1 216.702 60.1C218.968 64.0333 220.102 68.6 220.102 73.8C220.102 79 218.968 83.6 216.702 87.6C214.502 91.5333 211.468 94.6333 207.602 96.9C203.735 99.1 199.368 100.2 194.502 100.2ZM194.502 88.5C196.768 88.5 198.768 87.9667 200.502 86.9C202.302 85.8333 203.702 84.2 204.702 82C205.768 79.8 206.302 77.0667 206.302 73.8C206.302 70.5333 205.768 67.8333 204.702 65.7C203.702 63.5 202.302 61.8667 200.502 60.8C198.768 59.6667 196.802 59.1 194.602 59.1C192.468 59.1 190.502 59.6667 188.702 60.8C186.902 61.8667 185.468 63.5 184.402 65.7C183.402 67.8333 182.902 70.5333 182.902 73.8C182.902 77.0667 183.402 79.8 184.402 82C185.468 84.2 186.868 85.8333 188.602 86.9C190.402 87.9667 192.368 88.5 194.502 88.5ZM261.537 100.2C258.937 100.2 256.603 99.8667 254.537 99.2C252.537 98.5333 250.737 97.6333 249.137 96.5C247.603 95.3 246.303 93.9667 245.237 92.5L243.737 99H231.737V27H245.237V55.6C246.837 53.2667 248.937 51.3333 251.537 49.8C254.203 48.2 257.503 47.4 261.437 47.4C266.103 47.4 270.237 48.5667 273.837 50.9C277.503 53.1667 280.37 56.3 282.437 60.3C284.57 64.2333 285.637 68.7667 285.637 73.9C285.637 78.9 284.57 83.4 282.437 87.4C280.37 91.4 277.537 94.5333 273.937 96.8C270.337 99.0667 266.203 100.2 261.537 100.2ZM258.337 88.4C261.003 88.4 263.337 87.8 265.337 86.6C267.403 85.3333 269.003 83.6333 270.137 81.5C271.27 79.3 271.837 76.7667 271.837 73.9C271.837 71.0333 271.27 68.5 270.137 66.3C269.003 64.0333 267.403 62.3 265.337 61.1C263.337 59.8333 261.003 59.2 258.337 59.2C255.737 59.2 253.403 59.8333 251.337 61.1C249.337 62.3 247.737 64 246.537 66.2C245.403 68.4 244.837 70.9333 244.837 73.8C244.837 76.6667 245.403 79.2333 246.537 81.5C247.737 83.7 249.337 85.4 251.337 86.6C253.403 87.8 255.737 88.4 258.337 88.4ZM297.564 99V48.6H311.064V99H297.564ZM304.364 41.7C301.964 41.7 299.964 41 298.364 39.6C296.831 38.1333 296.064 36.3 296.064 34.1C296.064 31.9 296.831 30.1 298.364 28.7C299.964 27.2333 301.964 26.5 304.364 26.5C306.831 26.5 308.831 27.2333 310.364 28.7C311.964 30.1 312.764 31.9 312.764 34.1C312.764 36.3 311.964 38.1333 310.364 39.6C308.831 41 306.831 41.7 304.364 41.7ZM338.205 99L319.705 48.6H333.905L346.405 86.3L358.905 48.6H373.005L354.605 99H338.205ZM403.105 100.2C398.038 100.2 393.538 99.1333 389.605 97C385.738 94.8 382.705 91.7667 380.505 87.9C378.371 83.9667 377.305 79.4333 377.305 74.3C377.305 69.0333 378.371 64.4 380.505 60.4C382.705 56.3333 385.738 53.1667 389.605 50.9C393.471 48.5667 397.971 47.4 403.105 47.4C408.105 47.4 412.471 48.5 416.205 50.7C419.938 52.9 422.838 55.8667 424.905 59.6C426.971 63.3333 428.005 67.5667 428.005 72.3C428.005 72.9667 428.005 73.7333 428.005 74.6C428.005 75.4 427.938 76.2333 427.805 77.1H386.905V68.9H414.405C414.205 65.6333 413.038 63.0667 410.905 61.2C408.838 59.3333 406.238 58.4 403.105 58.4C400.838 58.4 398.738 58.9333 396.805 60C394.871 61 393.338 62.5667 392.205 64.7C391.138 66.8333 390.605 69.5333 390.605 72.8V75.7C390.605 78.4333 391.105 80.8333 392.105 82.9C393.171 84.9 394.638 86.4667 396.505 87.6C398.371 88.6667 400.538 89.2 403.005 89.2C405.471 89.2 407.505 88.6667 409.105 87.6C410.771 86.5333 412.005 85.1667 412.805 83.5H426.605C425.671 86.6333 424.105 89.4667 421.905 92C419.705 94.5333 417.005 96.5333 413.805 98C410.605 99.4667 407.038 100.2 403.105 100.2ZM439.061 99V48.6H451.061L452.361 57.9C453.561 55.7 455.061 53.8333 456.861 52.3C458.728 50.7667 460.828 49.5667 463.161 48.7C465.561 47.8333 468.194 47.4 471.061 47.4V61.7H466.461C464.461 61.7 462.594 61.9333 460.861 62.4C459.194 62.8667 457.728 63.6333 456.461 64.7C455.194 65.7 454.228 67.1 453.561 68.9C452.894 70.7 452.561 72.9667 452.561 75.7V99H439.061ZM500.579 100.2C495.979 100.2 491.979 99.4667 488.579 98C485.179 96.5333 482.512 94.5 480.579 91.9C478.646 89.3 477.546 86.3667 477.279 83.1H490.679C491.012 84.3667 491.579 85.5333 492.379 86.6C493.179 87.6 494.246 88.4 495.579 89C496.912 89.6 498.512 89.9 500.379 89.9C502.179 89.9 503.646 89.6667 504.779 89.2C505.912 88.6667 506.746 87.9667 507.279 87.1C507.879 86.2333 508.179 85.3333 508.179 84.4C508.179 83 507.779 81.9333 506.979 81.2C506.179 80.4 505.012 79.7667 503.479 79.3C501.946 78.8333 500.079 78.3667 497.879 77.9C495.479 77.4333 493.112 76.8667 490.779 76.2C488.512 75.4667 486.479 74.5667 484.679 73.5C482.879 72.4333 481.446 71.0667 480.379 69.4C479.312 67.7333 478.779 65.6667 478.779 63.2C478.779 60.2 479.579 57.5333 481.179 55.2C482.779 52.8 485.112 50.9 488.179 49.5C491.246 48.1 494.946 47.4 499.279 47.4C505.346 47.4 510.146 48.7667 513.679 51.5C517.212 54.2333 519.312 58 519.979 62.8H507.279C506.879 61.2667 505.979 60.0667 504.579 59.2C503.246 58.2667 501.446 57.8 499.179 57.8C496.779 57.8 494.946 58.2333 493.679 59.1C492.412 59.9667 491.779 61.1 491.779 62.5C491.779 63.4333 492.179 64.2667 492.979 65C493.846 65.7333 495.046 66.3667 496.579 66.9C498.112 67.3667 499.979 67.8333 502.179 68.3C506.046 69.1 509.446 70.0333 512.379 71.1C515.312 72.1 517.612 73.5667 519.279 75.5C520.946 77.3667 521.779 80.1 521.779 83.7C521.779 86.9 520.912 89.7667 519.179 92.3C517.446 94.7667 514.979 96.7 511.779 98.1C508.646 99.5 504.912 100.2 500.579 100.2ZM557.402 100.2C552.335 100.2 547.835 99.1333 543.902 97C540.035 94.8 537.002 91.7667 534.802 87.9C532.668 83.9667 531.602 79.4333 531.602 74.3C531.602 69.0333 532.668 64.4 534.802 60.4C537.002 56.3333 540.035 53.1667 543.902 50.9C547.768 48.5667 552.268 47.4 557.402 47.4C562.402 47.4 566.768 48.5 570.502 50.7C574.235 52.9 577.135 55.8667 579.202 59.6C581.268 63.3333 582.302 67.5667 582.302 72.3C582.302 72.9667 582.302 73.7333 582.302 74.6C582.302 75.4 582.235 76.2333 582.102 77.1H541.202V68.9H568.702C568.502 65.6333 567.335 63.0667 565.202 61.2C563.135 59.3333 560.535 58.4 557.402 58.4C555.135 58.4 553.035 58.9333 551.102 60C549.168 61 547.635 62.5667 546.502 64.7C545.435 66.8333 544.902 69.5333 544.902 72.8V75.7C544.902 78.4333 545.402 80.8333 546.402 82.9C547.468 84.9 548.935 86.4667 550.802 87.6C552.668 88.6667 554.835 89.2 557.302 89.2C559.768 89.2 561.802 88.6667 563.402 87.6C565.068 86.5333 566.302 85.1667 567.102 83.5H580.902C579.968 86.6333 578.402 89.4667 576.202 92C574.002 94.5333 571.302 96.5333 568.102 98C564.902 99.4667 561.335 100.2 557.402 100.2Z" fill="#406BD0"/>
<path d="M599.458 99.5C596.924 99.5 594.891 98.7667 593.358 97.3C591.824 95.7667 591.058 93.9 591.058 91.7C591.058 89.5 591.824 87.6667 593.358 86.2C594.891 84.6667 596.924 83.9 599.458 83.9C601.858 83.9 603.824 84.6667 605.358 86.2C606.891 87.6667 607.658 89.5 607.658 91.7C607.658 93.9 606.891 95.7667 605.358 97.3C603.824 98.7667 601.858 99.5 599.458 99.5Z" fill="#EDCD59"/>
<defs>
<clipPath id="clip0_2_121">
<rect width="100" height="100" fill="white" transform="translate(0 15)"/>
</clipPath>
</defs>
</svg>
